<svg width="8" height="22" viewBox="0 0 8 22" fill="none" xmlns="http://www.w3.org/2000/svg">
<path d="M0.833333 17.6762H1.66667V11.6571H0.833333C0.373083 11.6571 0 11.284 0 10.8238V8.83333C0 8.37308 0.373083 8 0.833333 8H5.5C5.96025 8 6.33333 8.37308 6.33333 8.83333V17.6762H7.16667C7.62692 17.6762 8 18.0493 8 18.5095V20.5C8 20.9603 7.62692 21.3333 7.16667 21.3333H0.833333C0.373083 21.3333 0 20.9603 0 20.5V18.5095C0 18.0493 0.373083 17.6762 0.833333 17.6762ZM4 0C2.34313 0 1 1.34313 1 3C1 4.65688 2.34313 6 4 6C5.65688 6 7 4.65688 7 3C7 1.34313 5.65683 0 4 0Z" fill="white"/>
</svg>
