<svg width="18" height="21" viewBox="0 0 18 21" fill="none" xmlns="http://www.w3.org/2000/svg">
<path d="M16.0714 9H15.1071V6.10714C15.1071 2.74018 12.367 0 9 0C5.63304 0 2.89286 2.74018 2.89286 6.10714V9H1.92857C0.863839 9 0 9.86384 0 10.9286V18.6429C0 19.7076 0.863839 20.5714 1.92857 20.5714H16.0714C17.1362 20.5714 18 19.7076 18 18.6429V10.9286C18 9.86384 17.1362 9 16.0714 9ZM11.8929 9H6.10714V6.10714C6.10714 4.51205 7.40491 3.21429 9 3.21429C10.5951 3.21429 11.8929 4.51205 11.8929 6.10714V9Z" fill="#A7B77B" fill-opacity="0.3"/>
</svg>
